# xmcd
#
# Track frame offsets: 
#        150
#        3066
#        17987
#        49208
#        66044
#        68535
#        90389
#        109722
#        112200
#        119557
#        152334
#        174555
#        202936
#
# Disc length: 2840 seconds
#
# Revision: 1
# Processed by: cddbd v1.5.1PL2 Copyright (c) Steve Scherf et al.
# Submitted via: ExactAudioCopy v0.90b4
#
DISCID=a00b160d
DTITLE=Otis Taylor - Blue Eyed Monster
DYEAR=1996
DGENRE=Blues
TTITLE0=Black Betty
TTITLE1=Harry, Turn The Music Up
TTITLE2=Hungry For Love
TTITLE3=Nobody Knows My Name
TTITLE4=Sito's Banjo Rag
TTITLE5=Odie's Train Time
TTITLE6=Coffee Woman
TTITLE7=Sito's Banjo Rag
TTITLE8=Ham Bones
TTITLE9=Hey Joe
TTITLE10=Sleepwalking Monster
TTITLE11=Crawlin' King Snake
TTITLE12=Laughing At The Moonlight
EXTD=
EXTT0=
EXTT1=
EXTT2=
EXTT3=
EXTT4=
EXTT5=
EXTT6=
EXTT7=
EXTT8=
EXTT9=
EXTT10=
EXTT11=
EXTT12=
PLAYORDER=
